<?xml version="1.0" encoding="UTF-8"?>
<svg width="149px" height="163px" viewBox="0 0 149 163" version="1.1" xmlns="http://www.w3.org/2000/svg" xmlns:xlink="http://www.w3.org/1999/xlink">
    <title>Untitled</title>
    <g id="Page-1" stroke="none" stroke-width="1" fill="none" fill-rule="evenodd">
        <path d="M148.71,132.46 C148.43,130.76 148.3,129.04 148.22,127.32 C148.1,124.74 147.34,122.28 146.48,119.87 C144.91,115.5 143.19,111.17 141.42,106.86 C139.81,102.94 138.33,98.98 137.39,94.9 C136.4,90.58 135.81,86.18 135.05,81.82 C134.92,81.05 134.84,80.27 134.71,79.5 C134.16,76.39 133.57,73.29 133.06,70.18 C132.32,65.63 131.46,61.11 130.06,56.67 C128.81,52.68 127.69,48.65 126.68,44.61 C125.91,41.49 125.17,38.38 123.83,35.41 C122.75,33.01 121.78,30.57 120.55,28.24 C118.68,24.7 116.32,21.41 113.71,18.24 C111.45,15.5 109.45,12.6 107.26,9.82 C105.89,8.09 104.33,6.97 102.42,6.01 C99.06,4.04 91.76,1.44 87.89,0.91 C86,0.55 84.08,0.27 82.16,0.15 C80.24,0.04 78.3,0.03 76.38,0.17 C72.54,0.46 68.73,1.23 65.08,2.46 C63.25,3.07 61.47,3.8 59.73,4.63 C57.98,5.47 56.31,6.37 54.67,7.49 L54.67,7.49 C54.37,7.7 54.29,8.11 54.5,8.4 C54.71,8.7 55.11,8.78 55.41,8.57 L55.44,8.55 C56.94,7.52 58.61,6.6 60.29,5.8 C61.98,4.99 63.72,4.28 65.49,3.68 C69.04,2.46 72.74,1.71 76.47,1.41 C78.34,1.26 80.21,1.27 82.08,1.37 C83.95,1.48 85.81,1.74 87.65,2.09 C90.06,2.59 92.42,3.3 94.72,4.2 C96.02,4.85 97.33,5.5 98.64,6.13 C100.5,7.02 102.18,8.06 103.5,9.55 C105.23,11.51 106.8,13.54 108.29,15.65 C110.25,18.43 112.55,21.03 114.52,23.8 C117.28,27.7 119.51,31.85 121.07,36.24 C121.95,38.72 122.77,41.22 123.49,43.75 C124.43,47.05 125.22,50.39 126.14,53.7 C126.89,56.4 127.96,59.05 128.5,61.78 C129.78,68.17 131.03,74.57 131.92,81.02 C132.81,87.43 133.85,93.8 135.79,100.02 C136.57,102.53 137.56,104.99 138.5,107.45 C139.98,111.35 141.57,115.23 142.98,119.15 C143.8,121.46 144.53,123.81 144.97,126.2 C145.42,128.61 145.45,131.1 145.71,133.54 C145.81,134.49 145.6,135.36 145.12,136.22 C144.03,138.17 142.3,139.68 140.48,141.11 C136.98,143.86 132.97,146.02 129.04,148.26 C126.6,149.65 123.91,150.73 121.36,151.97 C120.85,152.22 120.43,152.59 119.97,152.9 C120,153 120.02,153.09 120.05,153.19 C120.51,153.23 120.99,153.37 121.42,153.29 C122.68,153.07 123.96,152.86 125.17,152.49 C128.84,151.38 132.1,149.61 135.29,147.69 C138.97,145.48 142.66,143.31 145.57,140.31 C147.82,138.02 149.22,135.53 148.71,132.46" id="Path" fill="#ffffff" fill-rule="nonzero"></path>
        <path d="M117.04,110.16 L116.87,110.16 L116.87,96.84 C116.94,96.85 117.02,96.85 117.09,96.86 C118.68,101.3 118.51,105.73 117.04,110.16 M113.98,111.9 C113.92,112.77 113.61,113.62 113.41,114.48 C113.12,115.72 112.29,116.51 111.22,117.13 C109.53,118.12 107.84,119.16 105.93,119.63 C104.14,120.07 102.29,120.28 100.47,120.58 C100.07,120.64 99.64,120.57 99.25,120.68 C98.03,121 96.96,120.62 95.89,120.12 C95.5,119.94 95.11,119.74 94.7,119.62 C93.69,119.32 92.87,118.76 92.23,117.94 C91.12,116.52 90.03,115.08 88.91,113.66 C88.56,113.22 88.64,112.93 89.05,112.58 C94.24,108.33 97.79,102.9 100.26,96.75 C101.38,93.95 102.21,91.02 103.15,88.15 C103.29,87.72 103.51,87.53 103.95,87.66 C104.55,87.84 105.17,87.96 105.73,88.21 C108,89.25 110.25,90.32 112.5,91.39 C113.13,91.69 113.44,92.17 113.51,92.9 C113.69,94.8 114.06,96.7 114.17,98.6 C114.29,100.49 114.2,102.39 114.2,104.28 C114.24,104.28 114.28,104.28 114.31,104.28 C114.22,106.83 114.15,109.37 113.98,111.9 M86.96,108.99 C86.52,109.37 86.2,109.42 86,108.84 C85.48,107.25 84.9,105.68 84.54,104.05 C84.38,103.33 84.6,102.46 84.82,101.72 C85.35,100 85.76,98.18 86.63,96.64 C88.52,93.26 91.41,90.95 95.15,89.79 C96.09,89.5 97.03,89.18 97.97,88.88 C98.14,88.82 98.33,88.81 98.71,88.74 C98.33,89.92 98.03,90.92 97.7,91.91 C96.36,95.83 94.64,99.56 92.29,102.98 C90.77,105.2 89,107.21 86.96,108.99 M83.85,111.36 C81.69,112.79 79.4,113.96 76.97,114.85 C70.12,117.38 63.01,118.15 55.77,117.88 C52.55,117.76 49.4,117.15 46.58,115.44 C43.3,113.45 40.96,110.74 39.83,106.98 C38.72,103.29 37.86,99.55 37.22,95.75 C35.53,85.79 35.15,75.76 35.66,65.69 C35.83,62.38 35.9,59.06 36.28,55.77 C36.68,52.32 37.35,48.89 37.98,45.47 C38.26,43.97 38.66,42.5 39.1,41.04 C39.38,40.11 39.85,39.23 40.23,38.33 C40.26,38.27 40.32,38.22 40.33,38.16 C40.49,36.85 41.58,36.92 42.45,36.82 C44.78,36.55 46.87,37.22 48.67,38.72 C49.77,39.64 50.84,40.6 51.9,41.57 C52.19,41.84 52.37,42.23 52.6,42.57 C52.94,43.07 53.22,43.62 53.63,44.04 C54.7,45.13 55.29,46.47 55.9,47.83 C56.41,48.96 56.67,50.09 56.69,51.32 C56.69,51.58 56.81,51.9 56.99,52.08 C57.4,52.48 57.34,52.86 57.11,53.3 C56.87,53.78 56.67,54.28 56.45,54.77 C56.44,54.79 56.44,54.82 56.43,54.83 C55.56,55.7 55.62,56.97 55.07,57.99 C54.5,59.03 54.34,60.28 53.85,61.38 C52.82,63.69 51.93,66.07 50.49,68.19 C48.51,71.1 46.63,74.08 44.68,77.02 C44.07,77.94 44.03,78.9 44.48,79.84 C45.21,81.36 46.13,82.76 47.53,83.77 C47.86,84.01 48.12,84.34 48.44,84.59 C49.05,85.07 49.7,85.06 50.13,84.6 C50.56,84.14 50.51,83.5 49.94,82.94 C49.29,82.29 48.58,81.69 47.94,81.03 C47.61,80.7 47.35,80.29 47.09,79.89 C46.18,78.53 46.2,78.54 47.12,77.19 C49.27,74.03 51.51,70.91 53.51,67.65 C54.99,65.24 56.08,62.6 56.99,59.9 C57.35,58.82 57.95,57.83 58.29,56.75 C58.61,55.73 58.77,54.66 58.93,53.6 C59.01,53.05 58.92,52.48 58.95,51.92 C59.16,48.28 57.63,45.31 55.44,42.57 C54.68,41.62 54.13,40.47 53.28,39.62 C51.33,37.68 49.28,35.85 46.57,34.94 C45.64,34.63 44.76,34.45 43.8,34.51 C43.47,34.53 43.13,34.48 42.8,34.47 C42.77,34.4 42.74,34.34 42.71,34.27 C43.35,33.44 43.98,32.6 44.63,31.78 C46.2,29.81 47.69,27.78 49.37,25.91 C51.06,24.03 52.89,22.26 54.75,20.53 C56.29,19.1 57.93,17.77 59.58,16.46 C59.99,16.14 60.59,15.97 61.13,15.9 C64.09,15.47 67.05,15.52 70.01,15.93 C70.42,15.99 75.04,16.49 76.89,17.07 C78.67,17.63 80.37,18.42 82.1,19.13 C83.22,19.58 84.34,20.02 85.43,20.53 C86.28,20.94 87.1,21.43 87.88,21.95 C88.2,22.16 88.53,22.5 88.66,22.86 C89.74,25.64 90.76,28.45 91.83,31.24 C92.53,33.06 93.31,34.85 94.04,36.67 C94.58,38.03 95.11,39.39 95.62,40.76 C96.14,42.15 96.62,43.55 97.12,44.95 C97.21,45.21 97.31,45.47 97.44,45.81 C97.26,45.81 97.14,45.84 97.04,45.81 C96.37,45.58 95.72,45.26 95.04,45.1 C93.81,44.82 92.57,44.48 91.32,44.42 C89.02,44.32 86.71,44.31 84.41,44.43 C83.14,44.5 81.87,44.84 80.62,45.15 C79.14,45.51 77.66,45.9 76.22,46.4 C74.86,46.87 73.55,47.47 72.24,48.04 C71.31,48.44 70.37,48.82 69.5,49.34 C68.74,49.8 68.06,50.4 67.39,50.98 C66.74,51.54 66.13,52.15 65.52,52.76 C63.93,54.35 62.58,56.13 61.47,58.09 C61.26,58.46 61.09,58.86 60.96,59.27 C60.16,61.77 59.38,64.26 58.61,66.77 C58.51,67.09 58.47,67.45 58.5,67.79 C58.52,68.02 58.72,68.23 58.83,68.45 C59.04,68.33 59.33,68.25 59.44,68.07 C59.83,67.43 60.3,66.79 60.5,66.08 C61.18,63.67 62.3,61.48 63.65,59.39 C63.99,58.87 64.28,58.31 64.53,57.74 C65.58,55.38 67.54,53.92 69.65,52.64 C70.75,51.97 71.89,51.36 73.06,50.82 C74.46,50.17 75.91,49.62 77.35,49.05 C78.75,48.49 80.16,47.97 81.56,47.42 C83.58,46.63 85.72,46.58 87.83,46.39 C89.01,46.28 90.2,46.29 91.38,46.31 C93.97,46.37 96.31,47.22 98.37,48.78 C98.66,49 98.86,49.38 99.01,49.72 C99.81,51.53 100.51,53.38 101.37,55.16 C102.07,56.61 102.95,57.97 103.7,59.39 C103.9,59.76 104.06,60.24 104,60.64 C103.34,65.09 102.69,69.54 101.93,73.96 C101.3,77.6 100.52,81.22 99.81,84.84 C99.72,85.3 99.48,85.53 99,85.62 C96.9,85.98 94.94,86.63 93.16,87.89 C91.98,88.73 90.55,89.23 89.39,90.09 C86.78,92.02 84.62,94.36 83.63,97.57 C83.28,98.72 82.93,99.88 82.52,101.01 C81.77,103.1 82.08,105.13 82.81,107.13 C83.23,108.28 83.7,109.41 84.2,110.52 C84.34,110.96 84.16,111.15 83.85,111.36 M44.62,26.34 C47.05,21.95 51.24,18.87 53.92,18.08 C49.93,21.46 46.46,25.31 43.33,29.51 C43.48,28.33 44.07,27.34 44.62,26.34 M93.12,25.84 C96.77,28.28 99.42,31.52 101.3,35.51 C102.43,37.92 103.15,40.42 103.69,42.98 C104.04,44.62 104.15,46.3 104.36,47.97 C104.68,50.4 105.01,52.82 105.33,55.25 C105.36,55.44 105.38,55.62 105.41,55.87 C105.85,59.95 104.82,57.36 104.44,56.77 C104.02,56.05 103.56,55.36 103.21,54.61 C102.7,53.53 102.07,52.5 102.04,51.23 C102.03,50.74 101.62,50.26 101.41,49.77 C100.61,47.92 99.76,46.08 99.04,44.2 C98.12,41.79 97.35,39.33 96.44,36.91 C95.86,35.37 95.09,33.89 94.5,32.35 C93.67,30.21 92.92,28.04 92.14,25.87 C92.09,25.72 92.09,25.55 92.04,25.18 C92.51,25.47 92.83,25.64 93.12,25.84 M106.51,71.52 C106.73,70.21 106.93,68.9 107.13,67.6 L107.34,67.59 C107.58,68.47 107.82,69.35 108.06,70.24 C109.17,74.35 110.29,78.46 111.4,82.57 C111.89,84.37 112.36,86.18 112.82,87.99 C112.88,88.21 112.77,88.47 112.74,88.71 C112.52,88.64 112.29,88.61 112.09,88.51 C109.59,87.26 107.09,86.01 104.34,85.36 C104.19,85.33 103.99,84.99 104.02,84.83 C104.45,82.64 104.96,80.46 105.38,78.27 C105.8,76.02 106.14,73.76 106.51,71.52 M120.33,99.43 C119.77,96.37 118.64,93.58 116.42,91.3 C116.11,90.98 115.88,90.5 115.81,90.07 C115.39,87.32 114.88,84.62 114,81.96 C113.03,79 112.28,75.97 111.47,72.96 C110.91,70.88 110.39,68.79 109.93,66.69 C109.55,64.97 109.21,63.23 108.95,61.49 C108.76,60.24 108.21,56.1 108.19,55.99 C107.9,54.23 107.56,52.47 107.34,50.7 C106.93,47.35 106.88,43.95 105.98,40.67 C105.56,39.16 105.26,37.59 104.65,36.16 C103.83,34.27 102.79,32.48 101.78,30.69 C100.7,28.76 99.23,27.09 97.52,25.72 C95.05,23.72 92.45,21.88 89.92,19.95 C89.47,19.6 89.06,19.17 88.72,18.71 C88.18,17.99 87.78,17.16 87.21,16.47 C85.5,14.39 83.75,12.36 81.63,10.67 C79.78,9.19 77.85,7.9 75.58,7.19 C75.05,7.02 74.57,7.11 74.33,7.67 C74.1,8.22 74.47,8.58 74.88,8.84 C75.46,9.2 76.08,9.52 76.68,9.85 C79.83,11.57 82.4,13.95 84.62,16.74 C84.7,16.84 84.72,16.99 84.83,17.28 C84.43,17.11 84.17,17.04 83.94,16.9 C82.15,15.86 70.46,11.37 65.84,11.43 C65.8,11.35 65.77,11.27 65.73,11.2 C66.51,10.78 67.31,10.38 68.08,9.94 C68.54,9.68 69.01,9.4 69.38,9.03 C69.54,8.86 69.54,8.4 69.43,8.15 C69.36,7.97 68.97,7.84 68.73,7.85 C68.26,7.86 67.79,7.95 67.33,8.05 C65.39,8.47 63.98,9.74 62.58,11.02 C62.25,11.32 61.82,11.61 61.39,11.71 C59.3,12.19 57.15,12.46 55.1,13.06 C50.43,14.45 46.52,17.06 43.4,20.82 C41.01,23.7 39.52,27.04 38.28,30.52 C37.37,33.07 36.72,35.73 35.58,38.17 C34.44,40.6 32.88,42.85 31.41,45.12 C30.16,47.05 28.83,48.93 28.41,51.26 C28.36,51.55 28.22,51.83 28.08,52.1 C27.36,53.42 26.52,54.68 25.93,56.05 C24.98,58.26 24.09,60.51 23.36,62.8 C22.97,64.05 22.96,65.42 22.78,66.74 C22.33,70.08 22.66,73.41 23,76.72 C23.36,80.31 24.05,83.87 24.56,87.45 C24.89,89.77 25.31,92.09 25.42,94.43 C25.57,97.59 25.42,100.76 25.47,103.92 C25.5,105.61 24.83,106.91 23.71,108.13 C22.15,109.83 20.26,111.1 18.43,112.45 C15.47,114.64 12.26,116.3 8.61,116.98 C6.23,117.42 3.83,117.79 1.44,118.2 C1.28,118.23 1.14,118.37 0.99,118.46 C1.13,118.55 1.27,118.71 1.43,118.72 C1.88,118.77 2.36,118.66 2.78,118.79 C4.34,119.26 5.94,119.21 7.52,119.19 C9.65,119.15 11.74,118.75 13.67,117.88 C18.18,115.85 22.21,113.09 25.66,109.52 C27.1,108.03 27.86,106.27 27.84,104.17 C27.82,101.37 27.88,98.57 27.82,95.77 C27.79,94.05 27.68,92.33 27.47,90.63 C26.77,85 25.64,79.43 25.16,73.75 C24.89,70.48 25.12,67.26 25.37,64.02 C25.38,63.83 25.44,63.64 25.51,63.46 C26.63,60.55 27.65,57.6 28.9,54.76 C30,52.26 31.34,49.88 32.59,47.45 C32.74,47.16 32.99,46.93 33.19,46.67 C33.24,46.69 33.3,46.71 33.35,46.73 C33.33,46.99 33.33,47.26 33.3,47.52 C32.9,50.22 32.37,52.91 32.12,55.62 C31.79,59.22 31.63,62.84 31.47,66.45 C31,76.87 31.5,87.23 33.32,97.52 C34.02,101.46 34.87,105.36 36.23,109.13 C36.93,111.08 37.76,112.97 39.15,114.55 C42.38,118.23 46.33,120.7 51.19,121.48 C52.37,121.67 52.84,122.1 53.1,123.21 C53.75,125.97 54.58,128.69 55.24,131.45 C55.64,133.12 55.82,134.84 56.16,136.53 C57.04,141.02 57.3,145.53 56.73,150.07 C56.39,152.78 55.39,155.26 53.89,157.54 C53.11,158.73 52.38,159.94 51.66,161.16 C51.55,161.35 51.55,161.8 51.68,161.89 C51.86,162.02 52.24,162.04 52.47,161.94 C53.82,161.35 54.84,160.43 55.71,159.2 C57.91,156.05 59.1,152.55 59.33,148.79 C59.5,145.9 59.43,142.97 59.1,140.1 C58.5,134.91 57.56,129.76 55.96,124.76 C55.69,123.91 55.42,123.05 55.11,122.07 C55.46,122.07 55.73,122.06 56,122.07 C61.97,122.24 67.87,121.71 73.66,120.23 C78.04,119.12 82.18,117.42 85.96,114.9 C86.39,114.62 86.63,114.64 86.95,115.08 C87.76,116.21 88.67,117.28 89.48,118.42 C90.73,120.16 92.3,121.39 94.35,122.17 C96.19,122.87 97.93,123.38 99.96,123.13 C103.47,122.69 106.97,122.3 110.17,120.61 C110.28,120.55 110.43,120.56 110.76,120.51 C109.7,122.31 108.83,124.02 107.74,125.58 C105.58,128.68 103.02,131.43 100.13,133.89 C95.56,137.79 91.04,141.73 86.16,145.24 C84.99,146.08 83.88,147.01 82.44,147.38 C82.36,147.4 82.24,147.42 82.21,147.48 C82.11,147.65 81.93,147.89 81.98,148.02 C82.06,148.18 82.31,148.3 82.51,148.36 C82.63,148.4 82.8,148.3 82.94,148.26 C85.86,147.46 88.37,145.85 90.78,144.12 C94.01,141.8 97.1,139.28 100.23,136.82 C103.27,134.44 106.05,131.79 108.52,128.81 C110.54,126.37 111.99,123.58 113.49,120.82 C114.43,119.08 114.99,117.08 116.74,115.87 C116.77,115.85 116.79,115.8 116.82,115.77 C118.44,113.78 119.45,111.52 120.02,109.02 C120.74,105.81 120.92,102.63 120.33,99.43" id="Shape" fill="#ffffff" fill-rule="nonzero"></path>
        <path d="M73.74,57.08 C73.86,56.99 73.97,56.87 74.11,56.82 C76.13,55.97 78.15,55.1 80.41,55.11 C80.66,55.11 80.92,55.03 81.17,54.97 C82.57,54.63 83.74,55.07 84.65,56.11 C85.32,56.87 85.9,57.72 86.52,58.52 C86.45,58.6 86.37,58.69 86.3,58.77 C85.15,57.72 83.71,57.42 82.28,57.17 C80.44,56.85 78.58,56.59 76.7,56.75 C75.95,56.82 75.22,56.98 74.47,57.1 C74.24,57.15 74.02,57.18 73.74,57.08 M78.04,58.89 C78.29,59.38 78.07,60 77.49,60.38 C77.04,60.67 76.9,61.05 77.01,61.54 C77.2,62.36 77.64,63.02 78.41,63.36 C80.11,64.11 82.12,63.5 83.15,61.97 C83.88,60.89 84.03,60.86 85.12,61.62 C85.31,61.75 85.47,61.94 85.63,62.11 C86.48,63.04 86.77,64.38 87.83,65.14 C88.14,65.36 88.49,65.66 88.83,65.67 C89.32,65.69 89.49,65.23 89.59,64.78 C89.78,63.94 89.81,63.14 89.42,62.33 C89.22,61.9 89.18,61.38 89.09,60.89 C88.94,60.13 88.89,59.34 88.63,58.62 C88.05,57 87.05,55.59 85.79,54.43 C84.82,53.53 83.72,52.71 82.23,52.79 C80.74,52.99 79.23,53.08 77.78,53.42 C75.83,53.88 73.95,54.59 72.33,55.8 C71.27,56.59 70.3,57.51 69.28,58.37 C69.04,58.58 68.74,58.73 68.51,58.95 C68.01,59.45 68.2,60.16 68.89,60.18 C69.82,60.21 70.89,60.31 71.67,59.92 C73.26,59.11 74.97,58.86 76.64,58.44 C77.19,58.3 77.73,58.28 78.04,58.89" id="Shape" fill="#ffffff" fill-rule="nonzero"></path>
        <path d="M57.49,97.7 C56.15,98.3 54.78,98.87 53.4,99.37 C51.93,99.9 50.48,99.68 49.08,99.05 C47.55,98.36 46.63,97.14 46.05,95.62 C45.98,95.44 45.97,95.12 46.08,95.01 C46.5,94.59 46.46,94.15 46.15,93.66 C46.21,93.62 46.28,93.58 46.34,93.54 C47.15,94.06 47.93,94.62 48.76,95.09 C49.73,95.64 50.68,96.34 51.73,96.56 C53.39,96.91 55.14,97.41 56.8,96.4 C57.19,96.16 57.66,96.05 57.94,96.52 C58.25,97.04 57.92,97.51 57.49,97.7 M50.8,93.43 C51.37,94.23 51.97,94.37 52.84,94.13 C53.92,93.84 54.88,94.23 55.76,94.82 C52.82,95.02 50.18,94.31 47.95,92.11 C49.15,92.16 50.16,92.53 50.8,93.43 M60.29,94.5 C59.94,94.52 59.55,94.5 59.23,94.37 C58.53,94.09 57.89,93.67 57.19,93.4 C56.09,92.98 54.99,92.46 53.85,92.32 C52.91,92.2 51.98,92.34 51.32,91.48 C51.26,91.4 51.13,91.38 51.04,91.32 C48.83,90.01 46.4,90.31 44,90.33 C43.68,90.33 43.35,90.24 43.05,90.13 C42.84,90.05 42.66,89.86 42.47,89.73 C42.14,89.5 41.76,89.47 41.57,89.83 C41.45,90.05 41.47,90.51 41.63,90.67 C42.06,91.11 42.54,91.58 43.09,91.79 C43.87,92.09 44.48,92.33 44.29,93.35 C44.23,93.66 44.47,94.04 44.4,94.34 C44.13,95.44 44.35,96.45 44.76,97.47 C45.14,98.44 46.06,98.94 46.63,99.73 C47.69,101.18 49.18,101.66 50.88,101.79 C52.84,101.93 54.61,101.32 56.35,100.53 C56.86,100.3 57.37,100.13 57.54,99.48 C57.6,99.24 57.9,99.06 58.1,98.87 C58.81,98.19 59.5,97.48 60.25,96.84 C60.67,96.47 61.19,96.22 61.66,95.9 C61.88,95.75 62.11,95.59 62.31,95.42 C62.57,95.19 62.8,94.94 63.06,94.71 C63.17,94.61 63.31,94.53 63.44,94.44 C63.41,94.39 63.39,94.35 63.36,94.3 C62.33,94.36 61.31,94.45 60.29,94.5" id="Shape" fill="#ffffff" fill-rule="nonzero"></path>
        <path d="M43.62,48.08 C44.21,47.77 44.79,47.44 45.4,47.17 C46.33,46.76 47.29,46.52 48.34,46.6 C49.81,46.71 51.56,48.12 51.98,49.8 C49.27,48.59 46.5,48.32 43.69,48.28 C43.67,48.21 43.65,48.14 43.62,48.08 M46.38,50.86 C46.55,51.17 46.44,51.66 46.38,52.06 C46.36,52.23 46.15,52.36 46.04,52.52 C45.96,52.64 45.8,52.82 45.84,52.9 C46.15,53.55 46.33,54.48 46.85,54.74 C47.85,55.25 49.03,55.49 50.16,55.61 C51.13,55.72 51.73,54.97 51.76,53.99 C51.77,53.67 51.76,53.36 51.76,53.04 C51.84,53 51.91,52.96 51.99,52.92 C52.23,53.28 52.49,53.62 52.69,53.99 C52.84,54.27 52.9,54.6 53.04,54.89 C53.25,55.32 53.59,55.55 54.08,55.48 C54.58,55.4 54.75,55.05 54.74,54.59 C54.71,53.86 54.72,53.13 54.61,52.42 C54.45,51.42 54.19,50.45 53.98,49.46 C53.72,48.22 53.15,47.2 52.2,46.32 C50.31,44.57 48.19,44.02 45.8,45.05 C44.17,45.75 42.61,46.61 41.03,47.41 C40.74,47.55 40.49,47.76 40.2,47.89 C39.93,48.02 39.63,48.08 39.35,48.19 C39,48.33 38.48,48.42 38.35,48.69 C38.19,49 38.25,49.56 38.44,49.87 C38.88,50.57 39.59,51.01 40.45,50.96 C42.1,50.86 43.74,50.65 45.38,50.54 C45.71,50.53 46.26,50.64 46.38,50.86" id="Shape" fill="#ffffff" fill-rule="nonzero"></path>
        <path d="M85.14,86.74 C85.68,86.26 86.26,85.81 86.83,85.35 C89.21,83.44 91.59,81.52 93.97,79.62 C95.18,78.65 95.48,77.22 96.03,75.81 C95.9,75.59 95.8,75.26 95.61,75.18 C95.42,75.1 95.05,75.21 94.89,75.36 C94.46,75.79 94.1,76.31 93.7,76.77 C93.31,77.22 92.93,77.69 92.49,78.08 C92.04,78.48 91.52,78.79 91.03,79.14 C88.84,80.77 86.61,82.35 84.48,84.05 C83.31,84.98 82.14,86.01 81.3,87.23 C79.99,89.15 78.69,91.08 77.71,93.25 C76.89,95.07 76.45,96.93 76.09,98.84 C76.07,98.94 76.12,99.12 76.2,99.17 C76.27,99.21 76.46,99.17 76.53,99.1 C76.85,98.79 77.21,98.49 77.45,98.11 C78.42,96.54 79.36,94.95 80.3,93.36 C81.69,90.99 83.05,88.59 85.14,86.74" id="Path" fill="#ffffff" fill-rule="nonzero"></path>
    </g>
</svg>